<?xml version="1.0" encoding="UTF-8" standalone="no"?>


<svg width="33.956593mm" height="33.956585mm" viewBox="0 0 33.956593 33.956585" version="1.1" id="svg1" xmlns="http://www.w3.org/2000/svg" xmlns:svg="http://www.w3.org/2000/svg">
  <defs id="defs1"></defs>
  <g id="layer1" transform="translate(-15.06064,-181.10183)">
    <circle style="fill:#000000;stroke-width:0.264583" id="path2" cx="32.038937" cy="198.08012" r="16.978296"></circle>
    <path id="text3-8-1-8" style="font-weight:bold;font-size:35.2777px;font-family:inter;-inkscape-font-specification:&#39;inter Bold&#39;;text-align:start;writing-mode:lr-tb;direction:ltr;text-anchor:start;fill:#ffffff;fill-opacity:1;stroke-width:0.297714" d="m 31.680757,187.38131 c -1.783183,0 -3.327515,0.2645 -4.632603,0.79429 -1.292158,0.52979 -2.293785,1.27944 -3.004475,2.24856 -0.697761,0.96912 -1.046647,2.09957 -1.046647,3.39174 0,1.57644 0.517062,2.8688 1.550791,3.87668 0.595985,0.58109 1.351008,1.059 2.264834,1.43392 l 5.632744,-3.22136 -1.268777,-0.24771 c -0.7753,-0.16799 -1.382424,-0.41996 -1.821755,-0.75592 -0.439343,-0.33596 -0.659391,-0.76864 -0.659391,-1.29843 0,-0.60732 0.278199,-1.11811 0.833834,-1.53161 0.555622,-0.42641 1.324081,-0.63962 2.306118,-0.63962 1.020811,0 1.847995,0.27136 2.481157,0.81407 0.628076,0.53836 0.95098,1.2165 0.968736,2.03458 l 4.687255,-2.6806 c -0.160783,-0.34468 -0.353331,-0.67225 -0.577981,-0.98211 -0.736536,-1.03373 -1.763807,-1.82842 -3.081812,-2.38404 -1.318005,-0.56855 -2.861763,-0.85244 -4.632028,-0.85244 z m 5.148381,9.48322 -5.777526,3.30452 1.617651,0.31458 c 0.83991,0.15506 1.485798,0.40018 1.938058,0.73615 0.465178,0.33596 0.697772,0.77549 0.697772,1.3182 0,0.63316 -0.303854,1.15022 -0.91117,1.55079 -0.594398,0.40056 -1.420996,0.60066 -2.480572,0.60066 -1.111257,0 -1.990325,-0.25197 -2.636404,-0.75591 -0.646079,-0.50395 -1.02062,-1.20173 -1.123983,-2.09332 h -0.02329 l -4.813448,2.75271 c 0.185313,0.34854 0.401963,0.67777 0.650085,0.98792 0.826992,1.03373 1.931791,1.82842 3.314406,2.38404 1.382615,0.54271 2.95887,0.81406 4.729124,0.81406 1.783182,0 3.35317,-0.27762 4.709939,-0.83324 1.369697,-0.56856 2.435732,-1.35698 3.198114,-2.36486 0.7753,-1.02081 1.16295,-2.20941 1.16295,-3.56618 0,-1.51183 -0.490833,-2.71982 -1.472881,-3.62433 -0.66639,-0.63084 -1.75485,-1.26325 -2.778283,-1.52579 -1.8e-4,-4e-5 -0.141103,-0.14297 -5.74e-4,0 z"></path>
    <g id="g3">
      <circle style="fill:#000000;stroke-width:0.264583" id="circle2" cx="32.038937" cy="198.08012" r="16.978296"></circle>
      <path id="path3" style="font-weight:bold;font-size:35.2777px;font-family:inter;-inkscape-font-specification:&#39;inter Bold&#39;;text-align:start;writing-mode:lr-tb;direction:ltr;text-anchor:start;fill:#ffffff;fill-opacity:1;stroke-width:0.297714" d="m 31.680757,187.38131 c -1.783183,0 -3.327515,0.2645 -4.632603,0.79429 -1.292158,0.52979 -2.293785,1.27944 -3.004475,2.24856 -0.697761,0.96912 -1.046647,2.09957 -1.046647,3.39174 0,1.57644 0.517062,2.8688 1.550791,3.87668 0.595985,0.58109 1.351008,1.059 2.264834,1.43392 l 5.632744,-3.22136 -1.268777,-0.24771 c -0.7753,-0.16799 -1.382424,-0.41996 -1.821755,-0.75592 -0.439343,-0.33596 -0.659391,-0.76864 -0.659391,-1.29843 0,-0.60732 0.278199,-1.11811 0.833834,-1.53161 0.555622,-0.42641 1.324081,-0.63962 2.306118,-0.63962 1.020811,0 1.847995,0.27136 2.481157,0.81407 0.628076,0.53836 0.95098,1.2165 0.968736,2.03458 l 4.687255,-2.6806 c -0.160783,-0.34468 -0.353331,-0.67225 -0.577981,-0.98211 -0.736536,-1.03373 -1.763807,-1.82842 -3.081812,-2.38404 -1.318005,-0.56855 -2.861763,-0.85244 -4.632028,-0.85244 z m 5.148381,9.48322 -5.777526,3.30452 1.617651,0.31458 c 0.83991,0.15506 1.485798,0.40018 1.938058,0.73615 0.465178,0.33596 0.697772,0.77549 0.697772,1.3182 0,0.63316 -0.303854,1.15022 -0.91117,1.55079 -0.594398,0.40056 -1.420996,0.60066 -2.480572,0.60066 -1.111257,0 -1.990325,-0.25197 -2.636404,-0.75591 -0.646079,-0.50395 -1.02062,-1.20173 -1.123983,-2.09332 h -0.02329 l -4.813448,2.75271 c 0.185313,0.34854 0.401963,0.67777 0.650085,0.98792 0.826992,1.03373 1.931791,1.82842 3.314406,2.38404 1.382615,0.54271 2.95887,0.81406 4.729124,0.81406 1.783182,0 3.35317,-0.27762 4.709939,-0.83324 1.369697,-0.56856 2.435732,-1.35698 3.198114,-2.36486 0.7753,-1.02081 1.16295,-2.20941 1.16295,-3.56618 0,-1.51183 -0.490833,-2.71982 -1.472881,-3.62433 -0.66639,-0.63084 -1.75485,-1.26325 -2.778283,-1.52579 -1.8e-4,-4e-5 -0.141103,-0.14297 -5.74e-4,0 z"></path>
    </g>
  </g>
</svg>