<?xml version="1.0" encoding="UTF-8"?>
<svg xmlns="http://www.w3.org/2000/svg" viewBox="0 0 175.77643 27.228321" width="175.77643mm" height="27.228321mm">
  <g transform="translate(-17.719687,-68.008932)">
    <path fill="#ffffff" d="m 149.20415,68.008931 -3.59358,3.593067 3.59358,3.59357 3.59358,-3.59357 z m 39.22758,1.114661 v 9.990596 h -0.017 c -0.39044,-0.65456 -0.84996,-1.19412 -1.37821,-1.61902 -0.52825,-0.42489 -1.12505,-0.74052 -1.79111,-0.94723 -0.66604,-0.21819 -1.3956,-0.32763 -2.18798,-0.32763 -1.55028,0 -2.91667,0.40228 -4.09949,1.20613 -1.17133,0.79237 -2.08985,1.90038 -2.7559,3.32435 -0.65457,1.41248 -0.98185,3.05449 -0.98185,4.92632 0,1.89479 0.3212,3.55402 0.96428,4.97799 0.65457,1.42397 1.57361,2.53249 2.75642,3.32486 1.18281,0.79237 2.56643,1.18856 4.15117,1.18856 0.79237,0 1.53307,-0.11501 2.22208,-0.34468 0.68902,-0.22968 1.29749,-0.57976 1.82573,-1.05059 0.53974,-0.48231 0.9876,-1.07406 1.34359,-1.77457 h 0.0171 v 2.79053 h 4.99556 V 69.123592 Z M 38.924078,71.638688 v 4.96093 h -3.135209 v 3.97908 h 3.135209 v 9.38755 c 0,1.65364 0.470659,2.87109 1.412317,3.65197 0.953141,0.78089 2.428969,1.17099 4.42712,1.17099 h 1.670699 1.291911 v -3.97908 h -0.930176 -1.016476 c -0.689017,0 -1.159676,-0.12058 -1.412316,-0.36174 -0.241156,-0.24115 -0.361736,-0.66571 -0.361736,-1.27434 v -8.59535 h 3.720704 v -3.97908 h -3.720704 v -4.96093 z m 45.411179,0 v 4.96093 h -3.13521 v 3.97908 h 3.13521 v 9.38755 c 0,1.65364 0.47066,2.87109 1.41232,3.65197 0.95314,0.78089 2.42897,1.17099 4.42712,1.17099 h 1.6707 1.29191 v -3.97908 h -0.93018 -1.01647 c -0.68902,0 -1.15968,-0.12058 -1.41232,-0.36174 -0.24116,-0.24115 -0.36173,-0.66571 -0.36173,-1.27434 v -8.59535 h 3.7207 v -3.97908 h -3.7207 v -4.96093 z m -58.485316,4.58162 c -1.58474,0 -2.957216,0.23559 -4.117062,0.70642 -1.148363,0.47083 -2.038005,1.13706 -2.669604,1.99833 -0.620116,0.86127 -0.930176,1.86592 -0.930176,3.01429 0,1.401 0.459004,2.54955 1.377694,3.44527 0.91869,0.89572 2.262283,1.51532 4.030761,1.85983 l 3.186886,0.62012 c 0.746435,0.1378 1.320448,0.35617 1.722375,0.65474 0.41341,0.29857 0.620118,0.68919 0.620118,1.17151 0,0.56269 -0.269523,1.0217 -0.809253,1.37769 -0.528247,0.35599 -1.263376,0.53433 -2.205034,0.53433 -0.987592,0 -1.768311,-0.22393 -2.342492,-0.67179 -0.574182,-0.44786 -0.907554,-1.06798 -0.999423,-1.86035 h -4.995044 c 0.114837,1.29765 0.539389,2.40565 1.274341,3.32434 0.734952,0.91869 1.716809,1.62494 2.945557,2.11874 1.228748,0.48231 2.630104,0.72347 4.203361,0.72347 1.58474,0 2.979493,-0.24673 4.185274,-0.74053 1.217265,-0.50528 2.16467,-1.20595 2.842204,-2.10168 0.689017,-0.9072 1.033529,-1.96353 1.033529,-3.16931 0,-1.34359 -0.436209,-2.41766 -1.308964,-3.22151 -0.861272,-0.81534 -2.210435,-1.40049 -4.047815,-1.75648 l -3.445268,-0.6718 c -0.689017,-0.14928 -1.228579,-0.37322 -1.619023,-0.67179 -0.390443,-0.29857 -0.585494,-0.68363 -0.585494,-1.15446 0,-0.53973 0.246728,-0.99316 0.740524,-1.36064 0.493796,-0.37896 1.177248,-0.56844 2.050004,-0.56844 0.907206,0 1.641819,0.24116 2.204516,0.72347 0.562702,0.48231 0.849966,1.09078 0.861446,1.82573 h 4.702556 c -0.03445,-1.2632 -0.385049,-2.35398 -1.051099,-3.27267 -0.654567,-0.91869 -1.567004,-1.62494 -2.738334,-2.11873 -1.171329,-0.50528 -2.543804,-0.7581 -4.117061,-0.7581 z m 45.411186,0 c -1.66513,0 -3.09485,0.25282 -4.28915,0.7581 -1.1943,0.49379 -2.12448,1.20004 -2.79053,2.11873 -0.65456,0.91869 -1.02239,2.0039 -1.10277,3.25562 h 4.7718 c 0.0459,-0.47083 0.20653,-0.88424 0.48214,-1.24024 0.27561,-0.35599 0.649,-0.6316 1.11983,-0.82682 0.48231,-0.19522 1.03353,-0.29301 1.65365,-0.29301 0.62011,0 1.14802,0.0978 1.5844,0.29301 0.44786,0.19522 0.79237,0.46526 1.03352,0.80977 0.24116,0.33302 0.36174,0.72313 0.36174,1.17099 v 0.12092 c 0,0.39045 -0.14337,0.68328 -0.43047,0.8785 -0.28709,0.19523 -0.75775,0.34417 -1.41231,0.44752 -0.65457,0.10335 -1.53916,0.21279 -2.65307,0.32763 -0.94166,0.0804 -1.84296,0.22933 -2.70423,0.44752 -0.84979,0.21819 -1.60771,0.5399 -2.27376,0.9648 -0.65457,0.41341 -1.17133,0.96463 -1.55029,1.65364 -0.37896,0.67754 -0.56845,1.52716 -0.56845,2.5492 0,1.20578 0.27004,2.21652 0.80978,3.03186 0.53972,0.80385 1.28042,1.40675 2.22208,1.80867 0.94166,0.40193 2.01521,0.60255 3.22099,0.60255 0.93018,0 1.73421,-0.11449 2.41174,-0.34416 0.67754,-0.24116 1.25155,-0.57453 1.72238,-0.99943 0.47083,-0.42489 0.86701,-0.93557 1.18856,-1.53272 h 0.0687 v 2.56625 h 4.96093 v -9.07128 l -5.00331,2.86081 c -0.0567,0.48058 -0.2088,0.92019 -0.45682,1.31878 -0.32154,0.51676 -0.78106,0.92409 -1.37821,1.22267 -0.58566,0.29857 -1.28634,0.44803 -2.10168,0.44803 -0.5627,0 -1.05615,-0.0806 -1.48104,-0.24133 -0.4249,-0.16077 -0.75219,-0.39584 -0.98186,-0.7059 -0.22967,-0.31006 -0.34468,-0.67788 -0.34468,-1.10277 0,-0.48232 0.13781,-0.8785 0.41341,-1.18856 0.27561,-0.32154 0.649,-0.57384 1.11983,-0.75758 0.47083,-0.19522 0.99873,-0.33911 1.5844,-0.43098 0.40193,-0.0574 0.79255,-0.12023 1.1715,-0.18914 0.37896,-0.0689 0.72904,-0.13223 1.05059,-0.18965 0.32154,-0.0689 0.60323,-0.1378 0.84439,-0.2067 0.20079,-0.0669 0.36932,-0.13358 0.50643,-0.20051 h 5.2e-4 c 2.9e-4,-1.4e-4 10e-4,-8.1e-4 0.003,-0.002 l 5.05395,-2.89026 v -1.00718 c 0,-0.97611 -0.17226,-1.84904 -0.51676,-2.61845 -0.34451,-0.7694 -0.85519,-1.42397 -1.53273,-1.9637 -0.66605,-0.53973 -1.4873,-0.94706 -2.46341,-1.22266 -0.97611,-0.28709 -2.08412,-0.43099 -3.32435,-0.43099 z m 32.835183,0 c -1.66511,1e-5 -3.09484,0.25282 -4.289127,0.7581 -1.194296,0.49379 -2.124476,1.20004 -2.790526,2.11873 -0.65457,0.91869 -1.02239,2.0039 -1.10278,3.25562 h 4.771793 c 0.0459,-0.47083 0.20653,-0.88424 0.48213,-1.24024 0.27561,-0.35599 0.649,-0.6316 1.11984,-0.82682 0.48231,-0.19522 1.03353,-0.29301 1.65364,-0.29301 0.62012,0 1.14802,0.0978 1.5844,0.29301 0.44786,0.19522 0.79237,0.46526 1.03353,0.80977 0.24115,0.33302 0.36174,0.72313 0.36174,1.17099 v 0.12092 c 0,0.39045 -0.14338,0.68328 -0.43047,0.8785 -0.28709,0.19523 -0.75775,0.34417 -1.41232,0.44752 -0.65456,0.10335 -1.53915,0.21279 -2.65306,0.32763 -0.94167,0.0804 -1.84296,0.22933 -2.704217,0.44752 -0.849786,0.21819 -1.607716,0.5399 -2.273766,0.9648 -0.65456,0.41341 -1.17133,0.96463 -1.55029,1.65364 -0.37896,0.67754 -0.56844,1.52716 -0.56844,2.5492 0,1.20578 0.27004,2.21652 0.80977,3.03186 0.53973,0.80385 1.28043,1.40675 2.22209,1.80867 0.941649,0.40193 2.015203,0.60255 3.220963,0.60255 0.93018,0 1.73421,-0.11449 2.41175,-0.34416 0.67753,-0.24116 1.25155,-0.57453 1.72237,-0.99943 0.47083,-0.42489 0.86702,-0.93557 1.18856,-1.53272 h 0.0687 v 2.56625 h 4.96094 v -12.3331 c 0,-0.97611 -0.17226,-1.84904 -0.51676,-2.61845 -0.34451,-0.7694 -0.85519,-1.42397 -1.53273,-1.9637 -0.66605,-0.53973 -1.48731,-0.94706 -2.46341,-1.22266 -0.97611,-0.28709 -2.08411,-0.43098 -3.32435,-0.43099 z m 21.82451,0 c -0.84979,0 -1.65939,0.16669 -2.42879,0.49972 -0.7694,0.32154 -1.44729,0.81551 -2.03295,1.48156 -0.4173,0.46639 -0.76738,1.02307 -1.05059,1.67018 v -3.27215 h -4.8922 v 18.18959 h 5.08186 v -10.73113 c 0,-0.78088 0.14337,-1.44102 0.43046,-1.98076 0.29858,-0.55121 0.68919,-0.96463 1.17151,-1.24023 0.49379,-0.28709 1.03893,-0.43098 1.63607,-0.43098 0.89573,0 1.62529,0.28726 2.18798,0.86144 0.5627,0.5627 0.84388,1.31506 0.84388,2.25672 v 11.26494 h 4.89221 v -10.95488 c 0,-0.68902 0.12614,-1.28635 0.37878,-1.79163 0.26413,-0.51677 0.63752,-0.91852 1.11983,-1.20561 0.48232,-0.28709 1.04468,-0.43098 1.68776,-0.43098 0.87275,0 1.60231,0.27003 2.18798,0.80977 0.59714,0.53973 0.89555,1.3549 0.89555,2.44585 v 11.12748 h 5.06429 v -12.05766 c 0,-1.38952 -0.26395,-2.56643 -0.7922,-3.53106 -0.52825,-0.9761 -1.25781,-1.7168 -2.18798,-2.22208 -0.91869,-0.50528 -1.96336,-0.7581 -3.13469,-0.7581 -0.9876,0 -1.90664,0.18392 -2.75642,0.55139 -0.8383,0.35599 -1.55012,0.86719 -2.13579,1.53324 -0.37831,0.43023 -0.68232,0.9153 -0.91209,1.45573 -0.31188,-0.9519 -0.85748,-1.7298 -1.63711,-2.33423 -1.02204,-0.80385 -2.22783,-1.20613 -3.61735,-1.20613 z m 40.11796,0 c -1.65364,0 -3.01446,0.45396 -4.08243,1.36116 -0.61618,0.51679 -1.15017,1.15203 -1.60197,1.90583 v -2.88768 h -4.99556 v 18.18959 h 5.08186 v -10.11101 c 0,-0.94166 0.14894,-1.71124 0.44751,-2.30839 0.29858,-0.60863 0.71808,-1.0565 1.25781,-1.34359 0.53973,-0.28709 1.15985,-0.43046 1.86035,-0.43046 1.06798,0 1.88872,0.32171 2.4629,0.9648 0.58567,0.6316 0.8785,1.5557 0.8785,2.77296 v 10.45569 h 5.06429 v -11.38587 c 0,-1.53881 -0.26395,-2.84186 -0.7922,-3.90984 -0.51677,-1.06798 -1.25189,-1.87758 -2.20503,-2.42879 -0.95314,-0.5627 -2.07838,-0.8444 -3.37603,-0.8444 z m -106.3754,0.25839 c -1.20578,0 -2.164842,0.26447 -2.876827,0.79271 -0.711984,0.52825 -1.23432,1.33785 -1.567346,2.4288 h -0.05168 v -3.10059 h -4.892208 v 18.18959 h 5.08186 v -9.85263 c 0,-0.91869 0.15503,-1.68827 0.465088,-2.30838 0.310058,-0.62012 0.740697,-1.08521 1.291911,-1.39527 0.551214,-0.32154 1.171334,-0.48214 1.860352,-0.48214 0.436377,0 0.860927,0.0117 1.274337,0.0346 0.4249,0.023 0.72939,0.0402 0.91313,0.0517 v -4.32377 c -0.20671,-0.0115 -0.43621,-0.0171 -0.68885,-0.0171 -0.24116,-0.0115 -0.5112,-0.0176 -0.809771,-0.0176 z m 87.03137,0.12092 v 18.18959 h 5.08134 v -18.18959 z m 37.70622,3.7207 c 0.86127,0 1.60806,0.22393 2.23966,0.6718 0.64308,0.43637 1.14262,1.05649 1.49861,1.86035 0.356,0.79237 0.53382,1.73369 0.53382,2.82464 0,1.07946 -0.17782,2.02129 -0.53382,2.82515 -0.35599,0.80385 -0.85553,1.42954 -1.49861,1.8774 -0.6316,0.43638 -1.37839,0.65474 -2.23966,0.65474 -0.81534,0 -1.52715,-0.2067 -2.13579,-0.62011 -0.60863,-0.4249 -1.08538,-1.03388 -1.42988,-1.82625 -0.33303,-0.80385 -0.4992,-1.77405 -0.4992,-2.91093 0,-1.13688 0.16617,-2.10151 0.4992,-2.89388 0.3445,-0.79238 0.82125,-1.40084 1.42988,-1.82574 0.60864,-0.42489 1.32045,-0.63717 2.13579,-0.63717 z m -77.4454,5.99396 v 1.82624 c 0,0.65457 -0.1606,1.24024 -0.48214,1.757 -0.32154,0.51676 -0.78106,0.92409 -1.37821,1.22267 -0.58566,0.29857 -1.28634,0.44803 -2.10168,0.44803 -0.5627,0 -1.05616,-0.0806 -1.48106,-0.24133 -0.42488,-0.16077 -0.75217,-0.39584 -0.98184,-0.7059 -0.22967,-0.31006 -0.34468,-0.67788 -0.34468,-1.10277 0,-0.48232 0.13781,-0.8785 0.41341,-1.18856 0.2756,-0.32154 0.64898,-0.57384 1.11983,-0.75758 0.47082,-0.19522 0.99873,-0.33911 1.5844,-0.43098 0.40192,-0.0574 0.79254,-0.12023 1.1715,-0.18914 0.37896,-0.0689 0.72904,-0.13223 1.05058,-0.18965 0.32154,-0.0689 0.60324,-0.1378 0.8444,-0.2067 0.24115,-0.0804 0.4362,-0.16095 0.58549,-0.24133 z"></path>
  </g>
</svg>